<?xml version="1.0" encoding="UTF-8" standalone="no"?>
<svg width="38px" height="39px" viewBox="0 0 38 39" version="1.1" xmlns="http://www.w3.org/2000/svg" xmlns:xlink="http://www.w3.org/1999/xlink" xmlns:sketch="http://www.bohemiancoding.com/sketch/ns">
    <!-- Generator: bin/sketchtool 1.4 (305) - http://www.bohemiancoding.com/sketch -->
    <title>43-twitter copy</title>
    <desc>Created with bin/sketchtool.</desc>
    <defs></defs>
    <g id="ABOUT" stroke="none" stroke-width="1" fill="none" fill-rule="evenodd" sketch:type="MSPage">
        <g id="Blog-Indiv_Post-Mobile" sketch:type="MSArtboardGroup" transform="translate(-20.000000, -2279.000000)" fill="#000000">
            <g id="43-twitter-copy" sketch:type="MSLayerGroup" transform="translate(19.659638, 2279.475610)">
                <path d="M19.2161071,0.119473171 C8.90606069,0.119473171 0.548100262,8.51075122 0.548100262,18.8584976 C0.548100262,29.2077659 8.90606069,37.596 19.2161071,37.596 C29.5261535,37.596 37.8825978,29.2077659 37.8825978,18.8584976 C37.8825978,8.51075122 29.5253954,0.119473171 19.2161071,0.119473171 L19.2161071,0.119473171 Z M28.6194759,15.0802537 C28.6293311,15.2826732 28.6331216,15.4858537 28.6331216,15.6913171 C28.6331216,21.932078 23.9011135,29.1271024 15.2482554,29.1271024 C12.5919023,29.1271024 10.1182492,28.3455805 8.03652956,27.0062634 C8.40496211,27.049639 8.77870129,27.0717073 9.1585052,27.0717073 C11.3630357,27.0717073 13.391689,26.3168195 15.0011175,25.0505561 C12.9428987,25.0117463 11.2061107,23.6457951 10.6072183,21.7699902 C10.893777,21.8263024 11.1886746,21.8544585 11.4919113,21.8544585 C11.9209912,21.8544585 12.3364254,21.7981463 12.7313911,21.6893268 C10.5784109,21.2555707 8.95685283,19.345522 8.95685283,17.0595512 C8.95685283,17.0390049 8.95685283,17.0192195 8.95761092,16.9986732 C9.59137554,17.3525268 10.3168692,17.564839 11.0886065,17.5899512 C9.82562585,16.7414634 8.9955155,15.2978927 8.9955155,13.6587512 C8.9955155,12.793522 9.22749154,11.981561 9.63231248,11.2845073 C11.952831,14.1412098 15.4195841,16.0215805 19.3298209,16.2179122 C19.2494631,15.8731902 19.2077681,15.5117268 19.2077681,15.1418927 C19.2077681,12.5347902 21.3137467,10.420039 23.9124849,10.420039 C25.2656785,10.420039 26.4877222,10.9938146 27.3458819,11.9107902 C28.4178235,11.7 29.4245692,11.3058146 30.3335211,10.764761 C29.9810085,11.8681756 29.2358044,12.793522 28.2639309,13.3771902 C29.2168521,13.2630439 30.1235297,13.008878 30.9665277,12.6337171 C30.3373116,13.5826537 29.5390411,14.4144 28.6194759,15.0802537 L28.6194759,15.0802537 Z" id="Shape" sketch:type="MSShapeGroup"></path>
            </g>
        </g>
    </g>
</svg>
